<?xml version="1.0" encoding="UTF-8"?>
<svg id="Layer_1" xmlns="http://www.w3.org/2000/svg" version="1.1" xmlns:xlink="http://www.w3.org/1999/xlink" viewBox="0 0 2000 2000">
  <!-- Generator: Adobe Illustrator 29.8.2, SVG Export Plug-In . SVG Version: 2.1.1 Build 3)  -->
  <defs>
    <style>
      .st0 {
        fill: #b68b2e;
      }

      .st1 {
        fill: #db343b;
      }

      .st2 {
        fill: #f9e1e2;
      }

      .st3 {
        fill: #d61921;
      }

      .st4 {
        fill: #fbeeef;
      }

      .st5 {
        fill: #c8a541;
      }

      .st6 {
        fill: #fefefe;
      }

      .st7 {
        fill: #fdfcfc;
      }

      .st8 {
        fill: #d30912;
      }

      .st9 {
        fill: url(#linear-gradient);
      }

      .st10 {
        fill: #d71d25;
      }
    </style>
    <linearGradient id="linear-gradient" x1="288.94" y1="1018.71" x2="1704.7" y2="1018.71" gradientUnits="userSpaceOnUse">
      <stop offset=".03" stop-color="#987626"/>
      <stop offset=".3" stop-color="#eee471"/>
      <stop offset=".36" stop-color="#e0d063"/>
      <stop offset=".43" stop-color="#d2bd57"/>
      <stop offset=".49" stop-color="#ceb753"/>
      <stop offset=".5" stop-color="#c9b14f"/>
      <stop offset=".62" stop-color="#b1963c"/>
      <stop offset=".68" stop-color="#a98c35"/>
      <stop offset="1" stop-color="#f7f179"/>
    </linearGradient>
  </defs>
  <path class="st3" d="M1699.65,867.98c-16.85,114.4-68.46,206.81-159.77,278.1-16.48,12.86-67.73,50.21-85.05,52.22-1.93.22-3.9.17-5.87.05-.59,7.88-10.85,9.87-17.49,7.77.46,6.05-11.38,12.46-15.55,7.77-.25,6.82-16.27,11.93-21.38,7.77.66,5.79-11.79,10.28-15.55,5.83l-9.56,2.78c-3.66,4.97-18.89,12.36-23.47,6.94-4.35,4.77-11.16,10.22-17.49,3.89-9.79,7.68-19.51,9.62-29.15,5.83-1.73,5.68-10.96,7.26-13.6,1.94l-10.67,1.31c-1.82,5.19-7.19,4.65-10.71.63l-11.63,1.31c-4,5.76-9.94,4.32-15.58.63-39.42,4.18-82.16,6.44-120.49-5.83h-3.89c-4.33-1.47-8.86-2.12-13.6-1.94-14.29,4.94-29.86.87-42.75-5.83-10.48,3.49-19.96,2.24-29.15-3.89-17.37,4.49-36.89-.69-52.47-7.77-4.58,5.09-16.19,2.87-19.44-2.25l-21.36-3.58c-.36,1.73-1.02,1.66-1.94,0h-1.94l-9.72-1.94c-5.14,4.98-18.93,2.7-22.63-2.53l-12.35-1.36c-4.8,4.58-11.28,3.93-19.43-1.94-4.01,5.26-17.98,2.88-20.03-2.62l-14.95-1.27c-.48,1.7-1.13,1.66-1.94,0-8.87,2.51-15.35,1.86-19.43-1.94-8.76,2.95-16.53,2.31-23.32-1.94-2.3,5.48-11.51,5.81-13.6,0-7.33,4.16-12.93,4.01-16.79-.44-11.33.23-22.58-.27-33.74-1.5-7.06,4.51-14.83,4.51-23.32,0l-2.68,3.86s-5.59-1.29-16.76-3.86l-1.72,2.41c-14.69-3.25-33.25-2.15-48.81-.47-1.99,3.08-6.53,3.08-13.6,0-2.35,3.47-4.35,5.75-6.99,2.38l-14.39-.43c-1.69,3.19-3.01,5.22-4.43,1.99l-13.06-.04c-.36,1.73-1.02,1.66-1.94,0l-11.79,1.75c-.73,2.97-2,2.93-3.75.19l-10.11,1.43c-.09,4.7-2.07,3.65-5.44.51l-7.3,1.01c-.8,4.93-5.18,4.86-8.25.93l-11.15,1.25c-1.56,3.9-6.27,4.78-14.12,2.64-1.52,3.34-6.06,3.99-13.6,1.94-.36,1.7-1.02,1.63-1.94,0l-7.52,1.62c.37,3.01-.4,3.02-2.2.32l-7.47,1.59c.37,2.99-.42,3.01-2.25.35l-7.82,1.76c-3.86,5.15-7.74,5.86-11.62,2.12l-4.71,1.7c-1.6,6.54-9.67,7.42-14.72,4.13.55,5.54-6.27,8.62-9.72,3.89-2.1,6.2-6.3,7.71-11.66,3.89-7.49,8.39-13.97,10.33-19.43,5.83.82,5.78-8.42,7.93-9.72,1.94-.84,6.16-10.39,4.25-9.72-1.94-11.66,1.86-16.02-11-17.49-21.38-1.99-.55-4.23-1.26-5.46-3.05-5.94-8.7-7.56-32.94-8.14-43.59-.65-4.13-2.45-7.71-5.33-10.78-5.23-43.25-5.08-87.11,1.56-130.2,2.61-3.16,4.52-6.69,5.71-10.59-1.92-17.95,2.16-40.47,13.6-54.41-.74-1.46-.85-2.98-.88-4.56-.16-7.52,8.8-29.36,14.48-34.31,1.11-11.6,5-20.67,11.66-27.21.78-9.72,6.3-26.2,15.55-29.15-.13-9.54,4.04-20.19,13.6-23.32-1.93-6.78,4.37-20.53,11.66-19.43.24-8.5,6.85-21.21,15.55-21.38-2.32-6.82,6.49-17.95,13.6-17.49-3.89-4.34,7.39-14.14,11.66-13.6,5.51-9.65,16.32-26.76,27.21-27.21-.8-2.3-.36-4.23,1-6.17,3.68-5.27,18.62-17.32,24.26-15.21,3.07-7.47,9.01-13.24,17.8-17.3l40.5-19.62c136.25-51.11,229.37-54.72,373.81-36.65,208.59,26.1,420.86,61.44,631.83,36.62,40.88-4.81,81.59-13.49,120.36-27.17,10.3,1.88,12.02,9.28,12.86,18.37,4.92,53.43-2.25,124.47-9.79,177.89Z"/>
  <path class="st6" d="M1349.85,788.31l-71.9,310.93h-36.92l3.87-21.38c-29.79,21.58-65.18,28.84-101.77,25.02-62.84-6.55-48.85-64.54-39.13-108.61,8.84-40.09,19.19-84.75,60.55-102.69,26.72-11.59,70.76-13.63,97.24-.62,8.94,4.39,13.46,12.81,21.99,15.89l27.22-118.54h38.87Z"/>
  <path class="st6" d="M1483.54,882.16c20.54-1.04,52.97.44,71.89,8.59,28.57,12.3,29.31,38.23,25.11,65.09-5.13,32.79-19.59,98.87-43.18,122-25.84,25.35-80.47,27.7-114.71,25.36-82.22-5.62-69.05-54.58-53.98-116.33,17.81-72.98,34.43-100.63,114.88-104.72Z"/>
  <path class="st6" d="M748.96,882.16c22.64-1.15,69.29.93,85.98,17.82,6.29,6.37,10.67,18.51,11.57,27.3,2.95,28.86-19.92,119.47-38.04,142.64-26.23,33.54-83.02,35.97-122.34,33.28-83.59-5.71-67.36-59.18-52.04-120.21,18.18-72.42,35.88-96.82,114.88-100.84Z"/>
  <path class="st6" d="M516.16,834.95l-9.72,50.53h99.11c-.42,5.06-3.01,23.64-7.05,25.01l-97.97,1.14c-12.95,43.99-21.71,89.85-32.42,134.71-1.87,18.2-2.9,29.2,17.92,31.53,43.36,4.85,52.91-13.21,59.28-52.48h34.98c-3.67,67.25-52.52,82.46-111.81,77.8-24.98-1.96-45.27-11.35-43.68-39.83l33.07-152.63h-31.09l6.09-25.01,32.59-.45c4.69-16.39,5.68-35.14,12.82-50.34h37.89Z"/>
  <polygon class="st6" points="986.45 788.31 914.54 1099.24 875.68 1099.24 948.55 788.31 986.45 788.31"/>
  <path class="st6" d="M1021.43,1099.24h-40.81l51.5-213.77h34.98c.67,0,3.32,2.86,2.59,4.43l-48.26,209.34Z"/>
  <path class="st7" d="M1091.38,794.14c-2.8,12.08-4.24,26.38-10.69,36.92h-34.98c-1.32,0-2.24-2.35-2.18-4.01.31-7.84,6.03-25.78,9.95-32.91h37.89Z"/>
  <path class="st4" d="M1615.42,853.72c-26.36,26.36-62.92-21.2-31.11-39.86,27.47-16.12,50.38,20.59,31.11,39.86Z"/>
  <rect class="st8" x="873.73" y="1101.18" width="40.81" height="1.94"/>
  <rect class="st8" x="980.62" y="1101.18" width="38.87" height="1.94"/>
  <rect class="st8" x="1241.02" y="1101.18" width="36.92" height="1.94"/>
  <path class="st0" d="M1112.76,1246.93c-4.62-.5-9.65-1.48-13.6-1.94,4.25.46,10.85-1.74,13.6,1.94Z"/>
  <path class="st5" d="M930.09,1221.67c-3.11-.11-8.06,1.21-9.72-1.94,2.99.41,8.04-1.42,9.72,1.94Z"/>
  <path class="st3" d="M1207.56,909.33c17.83-2.17,56.02-1.05,61.7,20.78,5.54,21.25-6.61,71.48-13.64,93.36-8.79,27.37-23.07,46.77-52.71,52.23-19.53,3.6-59.83,4.53-62.99-22.09-3.2-26.92,15.43-110.96,35.05-130.23,8.04-7.89,21.55-12.71,32.58-14.06Z"/>
  <path class="st3" d="M1466.02,911.28c12.28-1.48,35.43-1.77,47.53-.04,17.04,2.44,26.58,11.77,26.52,29.41-.07,20.19-20.7,103.56-33.12,118.45-15.57,18.67-52.19,18.81-74.49,16.78-12.9-1.17-29.62-5.74-31.97-20.5-2.93-18.36,12.14-78.03,18.35-98,8.12-26.13,17.75-42.56,47.17-46.11Z"/>
  <path class="st3" d="M729.45,911.23c14.67-1.85,56.65-2.53,67.58,7.21,14,12.48,3.32,45.95-.04,62.27-8.35,40.63-12.84,89.8-62.45,94.96-23.92,2.49-70.02,5.22-70.76-28.03-.39-17.23,18.45-93.52,26.55-109.46,8.5-16.73,20.31-24.58,39.12-26.96Z"/>
  <path class="st10" d="M1611.54,849.83c-16.97,16.63-45.39-5.91-29.55-26.64,17.18-22.47,48.96,7.61,29.55,26.64Z"/>
  <path class="st2" d="M1606.36,846.6c-6.97.92-4.62-9.6-10.66-9.73-2.4-.05-.11,8.89-1,9.75h-5.81c1.84-9.64-5.89-28.57,8.22-26.84,15.89,1.95,4.65,15.4,9.25,26.82Z"/>
  <path class="st1" d="M1600.53,825.24c.45,3.58.12,5.7-2.93,7.74h-2.88s0-7.75,0-7.75h5.81Z"/>
  <path class="st9" d="M597.1,689.92c-1.04-1.96-65.36,16.61-127.22,64.01-131.99,101.14-164.03,265.36-172.45,309.81-3.47,18.33-5.33,32.49-6.41,40.73,0,0-8.49,64.66,8.9,154.65,1.96,10.14,6.03,29.07,19.18,48.57,6.97,10.34,24.02,35.61,50.14,39.5,17.16,2.55,24.38-6.18,61.39-20.18,18.34-6.94,31.55-10.39,57.98-17.3,36.7-9.59,64.38-12.75,105.79-17.3,52.26-5.74,92.52-7.38,105.52-7.87,109.79-4.15,201.88.39,214.91,1.06,175.26,9.02,184.87,27.09,283.53,19.13,39.51-3.19,91.64-7.73,156.25-29.7,44.06-14.98,135.43-47.27,218.36-135.78,24.97-26.65,93.38-101.5,120.54-220.88,8.36-36.73,10.68-68.35,11.19-90.69-4.99,47.3-23.24,157.89-106.81,256.87-15.16,17.95-63.36,72.12-143.6,112.19-69.9,34.9-129.99,42.07-178.79,47.44-74.18,8.16-131.27,1.36-212.84-8.29-76.42-9.05-65.16-13.27-143.89-22.17-87.73-9.91-163.21-11.62-207.13-12.52-47-.96-70.5-1.38-83.92-.26-70.49,5.89-145.7,12.17-205.73,40.63-5.79,2.75-17.95,8.78-30.05,4.38-16.67-6.05-26.7-29.52-31.88-70.06-17.4-136.28,34.88-260.15,34.88-260.15,17.49-49.28,49.43-114.54,111.74-166.7,43.87-36.72,91.35-57.38,90.43-59.12Z"/>
</svg>